<?xml version="1.0" standalone="no"?>
<!DOCTYPE svg PUBLIC "-//W3C//DTD SVG 20010904//EN"
 "http://www.w3.org/TR/2001/REC-SVG-20010904/DTD/svg10.dtd">
<svg version="1.0" xmlns="http://www.w3.org/2000/svg"
 width="512.000000pt" height="512.000000pt" viewBox="0 0 512.000000 512.000000"
 preserveAspectRatio="xMidYMid meet">
<metadata>
Created by potrace 1.11, written by Peter Selinger 2001-2013
</metadata>
<g transform="translate(0.000000,512.000000) scale(0.100000,-0.100000)"
fill="#000000" stroke="none">
<path d="M3299 5052 c-75 -50 -145 -108 -193 -161 -23 -24 -48 -51 -57 -60
-21 -21 -129 -176 -129 -186 0 -4 -9 -20 -21 -36 -11 -16 -17 -29 -13 -29 3 0
2 -6 -3 -12 -18 -23 -71 -181 -89 -263 -19 -94 -25 -271 -12 -370 11 -85 50
-235 78 -298 15 -34 18 -52 11 -64 -6 -10 -85 -92 -176 -182 l-166 -165 -862
861 c-575 574 -878 869 -910 887 -229 130 -533 55 -661 -163 -55 -94 -70 -153
-69 -266 1 -107 16 -161 67 -250 15 -25 393 -411 881 -899 470 -470 855 -858
855 -862 0 -4 -390 -397 -866 -873 -888 -888 -910 -912 -944 -1021 -18 -62
-20 -184 -3 -245 81 -287 379 -419 651 -288 49 24 194 165 1040 1010 541 540
990 987 998 994 11 9 104 -78 523 -498 506 -506 510 -510 536 -579 15 -38 28
-73 29 -79 2 -5 7 -21 13 -35 5 -14 22 -61 38 -105 l27 -80 355 -356 355 -356
229 229 229 230 -352 352 -353 353 -175 63 c-96 34 -181 66 -189 70 -8 4 -243
236 -522 515 -404 404 -506 511 -497 522 6 8 146 149 311 314 205 204 305 298
316 295 41 -13 197 -47 244 -53 67 -9 227 -9 295 0 305 41 611 233 793 496
145 210 210 435 204 701 -2 69 -6 136 -9 150 -8 35 -16 72 -20 95 -9 45 -58
180 -87 238 -70 139 -200 299 -324 400 -32 26 -141 97 -149 97 -2 0 -4 -230
-4 -511 0 -281 -2 -511 -3 -513 -26 -18 -531 -366 -550 -378 -25 -16 -26 -15
-310 181 l-284 196 -3 513 c-1 281 -6 512 -10 512 -4 0 -32 -17 -63 -38z"/>
</g>
</svg>
